<svg xmlns="http://www.w3.org/2000/svg" viewBox="0 0 100 100" role="img" aria-label="Ironframe">
  <title>Ironframe</title>
  <g fill="none" stroke="#22d3ee" stroke-width="1.35" stroke-linecap="round" stroke-linejoin="round" opacity="0.45">
    <polyline points="50,38.8 50,32 50,20 50,8"/>
    <polyline points="59.7,44.4 65.59,41 75.98,35 86.37,29"/>
    <polyline points="59.7,55.6 65.59,59 75.98,65 86.37,71"/>
    <polyline points="50,61.2 50,68 50,80 50,92"/>
    <polyline points="40.3,55.6 34.41,59 24.02,65 13.63,71"/>
    <polyline points="40.3,44.4 34.41,41 24.02,35 13.63,29"/>
  </g>
  <g fill="#22d3ee" opacity="0.92">
    <circle cx="50" cy="32" r="4.85"/>
    <circle cx="50" cy="20" r="4.85"/>
    <circle cx="50" cy="8" r="4.85"/>
    <circle cx="65.59" cy="41" r="4.85"/>
    <circle cx="75.98" cy="35" r="4.85"/>
    <circle cx="86.37" cy="29" r="4.85"/>
    <circle cx="65.59" cy="59" r="4.85"/>
    <circle cx="75.98" cy="65" r="4.85"/>
    <circle cx="86.37" cy="71" r="4.85"/>
    <circle cx="50" cy="68" r="4.85"/>
    <circle cx="50" cy="80" r="4.85"/>
    <circle cx="50" cy="92" r="4.85"/>
    <circle cx="34.41" cy="59" r="4.85"/>
    <circle cx="24.02" cy="65" r="4.85"/>
    <circle cx="13.63" cy="71" r="4.85"/>
    <circle cx="34.41" cy="41" r="4.85"/>
    <circle cx="24.02" cy="35" r="4.85"/>
    <circle cx="13.63" cy="29" r="4.85"/>
  </g>
  <circle cx="50" cy="50" r="11.2" fill="#ffffff"/>
  <circle cx="50" cy="50" r="8.5" fill="#ffffff"/>
  <circle cx="50" cy="50" r="3.5" fill="#f59e0b" opacity="0.95"/>
</svg>
